<svg width="195" height="52" viewBox="0 0 195 52" fill="none" xmlns="http://www.w3.org/2000/svg">
<path d="M70.52 12.52C70.52 11.976 70.4453 11.576 70.296 11.32C70.1467 11.0533 69.848 10.92 69.4 10.92H69.24V10.44H71.16C71.544 10.44 71.8373 10.504 72.04 10.632C72.2427 10.76 72.3867 10.9733 72.472 11.272C72.5573 11.56 72.6 11.976 72.6 12.52V15.16H76.92V10.44H79V18.92C79 19.464 79.0747 19.8693 79.224 20.136C79.3733 20.392 79.672 20.52 80.12 20.52H80.28V21H78.36C77.976 21 77.6827 20.9413 77.48 20.824C77.2773 20.696 77.1333 20.488 77.048 20.2C76.9627 19.9013 76.92 19.4747 76.92 18.92V15.88H72.6V21H70.52V12.52ZM84.647 21.16C83.911 21.16 83.2657 20.9893 82.711 20.648C82.1563 20.3067 81.7243 19.8427 81.415 19.256C81.1163 18.6587 80.967 17.9867 80.967 17.24C80.967 16.408 81.1163 15.6987 81.415 15.112C81.7243 14.5253 82.1457 14.0827 82.679 13.784C83.2123 13.4747 83.815 13.32 84.487 13.32C85.1483 13.32 85.7457 13.4533 86.279 13.72C86.8123 13.9867 87.2337 14.3653 87.543 14.856C87.8523 15.336 88.007 15.8907 88.007 16.52C88.007 16.7227 87.9963 16.952 87.975 17.208L87.943 17.528H83.127C83.127 18.5413 83.2817 19.2827 83.591 19.752C83.9003 20.2107 84.3323 20.44 84.887 20.44C85.399 20.44 85.8257 20.328 86.167 20.104C86.519 19.8693 86.855 19.5387 87.175 19.112L87.671 19.48C87.3617 19.96 86.9723 20.36 86.503 20.68C86.0443 21 85.4257 21.16 84.647 21.16ZM85.847 16.808C85.847 15.8053 85.7297 15.096 85.495 14.68C85.2603 14.2533 84.9243 14.04 84.487 14.04C84.0817 14.04 83.751 14.2587 83.495 14.696C83.2497 15.1227 83.127 15.8267 83.127 16.808H85.847ZM91.9556 21.16C90.6436 21.16 89.657 20.7333 88.9956 19.88L89.4756 19.48C89.9876 20.12 90.6543 20.44 91.4756 20.44C91.9876 20.44 92.393 20.3227 92.6916 20.088C93.001 19.8533 93.1556 19.4907 93.1556 19C93.1556 18.4773 93.0116 18.0933 92.7236 17.848C92.4463 17.6027 91.9503 17.48 91.2356 17.48H90.4356V16.76H91.2356C91.865 16.76 92.3023 16.6587 92.5476 16.456C92.793 16.2427 92.9156 15.8907 92.9156 15.4C92.9156 14.952 92.777 14.616 92.4996 14.392C92.2223 14.1573 91.881 14.04 91.4756 14.04C90.9956 14.04 90.5903 14.2053 90.2596 14.536C89.929 14.856 89.7476 15.2773 89.7156 15.8H89.2356C89.2356 15.2453 89.257 14.8347 89.2996 14.568C89.3423 14.2907 89.4543 14.0613 89.6356 13.88C89.8276 13.688 90.121 13.5493 90.5156 13.464C90.9103 13.368 91.3636 13.32 91.8756 13.32C92.8676 13.32 93.6463 13.496 94.2116 13.848C94.7876 14.1893 95.0756 14.7067 95.0756 15.4C95.0756 15.8693 94.8996 16.2587 94.5476 16.568C94.2063 16.8773 93.7423 17.0747 93.1556 17.16C93.817 17.2453 94.3396 17.4533 94.7236 17.784C95.1183 18.1147 95.3156 18.52 95.3156 19C95.3156 19.736 95.0223 20.28 94.4356 20.632C93.849 20.984 93.0223 21.16 91.9556 21.16ZM99.059 21.16C98.195 21.16 97.523 20.968 97.043 20.584C96.5737 20.1893 96.339 19.6613 96.339 19C96.339 18.4667 96.4617 18.024 96.707 17.672C96.963 17.32 97.4057 17.0533 98.035 16.872C98.6643 16.6907 99.539 16.6 100.659 16.6H100.899C100.899 15.672 100.771 15.016 100.515 14.632C100.259 14.2373 99.8803 14.04 99.379 14.04C98.963 14.04 98.6217 14.1413 98.355 14.344C98.0883 14.5467 97.8963 14.9253 97.779 15.48H96.899C96.899 15.1173 96.9203 14.808 96.963 14.552C97.0163 14.296 97.1283 14.072 97.299 13.88C97.6297 13.5067 98.4297 13.32 99.699 13.32C100.766 13.32 101.576 13.6027 102.131 14.168C102.696 14.7227 102.979 15.56 102.979 16.68V21H101.619L101.059 20.28H100.979C100.883 20.4293 100.734 20.5787 100.531 20.728C100.168 21.016 99.6777 21.16 99.059 21.16ZM99.539 20.36C99.763 20.36 99.955 20.3173 100.115 20.232C100.275 20.136 100.43 20.008 100.579 19.848C100.718 19.6987 100.824 19.5227 100.899 19.32V17.32H100.659C99.9017 17.32 99.3523 17.4587 99.011 17.736C98.6697 18.0027 98.499 18.424 98.499 19C98.499 19.4373 98.5897 19.7733 98.771 20.008C98.9523 20.2427 99.2083 20.36 99.539 20.36ZM108.213 21.16C107.082 21.16 106.186 20.8133 105.525 20.12C104.863 19.416 104.533 18.4293 104.533 17.16V16.68C104.533 15.3787 104.645 14.3493 104.868 13.592C105.103 12.824 105.418 12.2693 105.812 11.928C106.218 11.576 106.73 11.3307 107.349 11.192L109.573 10.68C110.063 10.5627 110.426 10.4507 110.661 10.344C110.906 10.2267 111.05 10.072 111.093 9.88H111.573V11.16C111.573 11.7147 111.253 12.0613 110.613 12.2L107.989 12.792C107.295 12.9627 106.73 13.3147 106.293 13.848C105.855 14.3707 105.615 15.1013 105.573 16.04H105.653C105.919 15.368 106.282 14.856 106.741 14.504C107.199 14.1413 107.797 13.96 108.533 13.96C109.546 13.96 110.357 14.264 110.965 14.872C111.583 15.4693 111.892 16.3653 111.892 17.56C111.892 18.7653 111.567 19.6667 110.917 20.264C110.277 20.8613 109.375 21.16 108.213 21.16ZM108.213 20.44C108.618 20.44 108.97 20.2213 109.269 19.784C109.578 19.3467 109.733 18.6053 109.733 17.56C109.733 16.8667 109.653 16.3067 109.493 15.88C109.343 15.4427 109.151 15.1333 108.917 14.952C108.693 14.7707 108.458 14.68 108.213 14.68C107.967 14.68 107.727 14.7707 107.493 14.952C107.269 15.1333 107.077 15.4427 106.917 15.88C106.767 16.3067 106.693 16.8667 106.693 17.56C106.693 18.6053 106.842 19.3467 107.141 19.784C107.45 20.2213 107.807 20.44 108.213 20.44ZM113.795 15.56C113.795 15.016 113.721 14.616 113.571 14.36C113.422 14.0933 113.123 13.96 112.675 13.96H112.515V13.48H114.435C114.819 13.48 115.113 13.544 115.315 13.672C115.518 13.8 115.662 14.0133 115.747 14.312C115.833 14.6 115.875 15.016 115.875 15.56V16.52H116.915C117.929 16.52 118.729 16.7173 119.315 17.112C119.902 17.496 120.195 18.0453 120.195 18.76C120.195 19.4747 119.902 20.0293 119.315 20.424C118.729 20.808 117.929 21 116.915 21H113.795V15.56ZM122.435 21C122.051 21 121.758 20.9413 121.555 20.824C121.353 20.696 121.209 20.488 121.123 20.2C121.038 19.9013 120.995 19.4747 120.995 18.92V13.48H123.075V18.92C123.075 19.464 123.15 19.8693 123.299 20.136C123.449 20.392 123.747 20.52 124.195 20.52H124.355V21H122.435ZM116.595 20.36C117.001 20.36 117.342 20.2373 117.619 19.992C117.897 19.736 118.035 19.3253 118.035 18.76C118.035 18.1947 117.897 17.7893 117.619 17.544C117.342 17.288 117.001 17.16 116.595 17.16C116.339 17.16 116.099 17.1973 115.875 17.272V20.248C116.099 20.3227 116.339 20.36 116.595 20.36ZM125.528 15.56C125.528 15.016 125.453 14.616 125.304 14.36C125.154 14.0933 124.856 13.96 124.408 13.96H124.328V13.48H128.616C129.608 13.48 130.392 13.6453 130.968 13.976C131.554 14.3067 131.848 14.7813 131.848 15.4C131.848 15.8693 131.672 16.248 131.32 16.536C130.968 16.8133 130.466 16.9947 129.816 17.08C130.53 17.176 131.101 17.384 131.528 17.704C131.954 18.0133 132.168 18.4187 132.168 18.92C132.168 20.3067 130.984 21 128.616 21H125.528V15.56ZM128.168 16.68C128.594 16.68 128.952 16.568 129.24 16.344C129.538 16.1093 129.688 15.7947 129.688 15.4C129.688 14.984 129.549 14.6693 129.272 14.456C129.005 14.232 128.69 14.12 128.328 14.12C128.072 14.12 127.832 14.1573 127.608 14.232V16.68H128.168ZM128.328 20.36C128.829 20.36 129.234 20.2373 129.544 19.992C129.853 19.736 130.008 19.3787 130.008 18.92C130.008 18.4187 129.842 18.04 129.512 17.784C129.192 17.528 128.744 17.4 128.168 17.4H127.608V20.248C127.832 20.3227 128.072 20.36 128.328 20.36ZM135.918 21.16C135.054 21.16 134.382 20.968 133.902 20.584C133.433 20.1893 133.198 19.6613 133.198 19C133.198 18.4667 133.321 18.024 133.566 17.672C133.822 17.32 134.265 17.0533 134.894 16.872C135.524 16.6907 136.398 16.6 137.518 16.6H137.758C137.758 15.672 137.63 15.016 137.374 14.632C137.118 14.2373 136.74 14.04 136.238 14.04C135.822 14.04 135.481 14.1413 135.214 14.344C134.948 14.5467 134.756 14.9253 134.638 15.48H133.758C133.758 15.1173 133.78 14.808 133.822 14.552C133.876 14.296 133.988 14.072 134.158 13.88C134.489 13.5067 135.289 13.32 136.558 13.32C137.625 13.32 138.436 13.6027 138.99 14.168C139.556 14.7227 139.838 15.56 139.838 16.68V21H138.478L137.918 20.28H137.838C137.742 20.4293 137.593 20.5787 137.39 20.728C137.028 21.016 136.537 21.16 135.918 21.16ZM136.398 20.36C136.622 20.36 136.814 20.3173 136.974 20.232C137.134 20.136 137.289 20.008 137.438 19.848C137.577 19.6987 137.684 19.5227 137.758 19.32V17.32H137.518C136.761 17.32 136.212 17.4587 135.87 17.736C135.529 18.0027 135.358 18.424 135.358 19C135.358 19.4373 135.449 19.7733 135.63 20.008C135.812 20.2427 136.068 20.36 136.398 20.36ZM144.944 21.16C144.208 21.16 143.563 20.9893 143.008 20.648C142.453 20.3067 142.021 19.8427 141.712 19.256C141.413 18.6587 141.264 17.9867 141.264 17.24C141.264 16.408 141.413 15.6987 141.712 15.112C142.021 14.5253 142.443 14.0827 142.976 13.784C143.509 13.4747 144.112 13.32 144.784 13.32C145.445 13.32 146.043 13.4533 146.576 13.72C147.109 13.9867 147.531 14.3653 147.84 14.856C148.149 15.336 148.304 15.8907 148.304 16.52C148.304 16.7227 148.293 16.952 148.272 17.208L148.24 17.528H143.424C143.424 18.5413 143.579 19.2827 143.888 19.752C144.197 20.2107 144.629 20.44 145.184 20.44C145.696 20.44 146.123 20.328 146.464 20.104C146.816 19.8693 147.152 19.5387 147.472 19.112L147.968 19.48C147.659 19.96 147.269 20.36 146.8 20.68C146.341 21 145.723 21.16 144.944 21.16ZM146.144 16.808C146.144 15.8053 146.027 15.096 145.792 14.68C145.557 14.2533 145.221 14.04 144.784 14.04C144.379 14.04 144.048 14.2587 143.792 14.696C143.547 15.1227 143.424 15.8267 143.424 16.808H146.144ZM159.437 21.4C158.295 21.4 157.469 21.1493 156.957 20.648C156.445 20.136 156.189 19.3467 156.189 18.28V15.496L153.885 21H153.357L150.573 15.336V20.984H149.773V13.48H151.725L154.093 18.296L156.173 13.32H158.269V18.28C158.269 19.1867 158.354 19.848 158.525 20.264C158.695 20.68 158.999 20.9253 159.437 21V21.4ZM160.733 15.56C160.733 15.016 160.658 14.616 160.509 14.36C160.359 14.0933 160.061 13.96 159.613 13.96H159.453V13.48H161.373C161.757 13.48 162.05 13.544 162.253 13.672C162.455 13.8 162.599 14.0133 162.685 14.312C162.77 14.6 162.813 15.016 162.813 15.56V16.52H163.853C164.866 16.52 165.666 16.7173 166.253 17.112C166.839 17.496 167.133 18.0453 167.133 18.76C167.133 19.4747 166.839 20.0293 166.253 20.424C165.666 20.808 164.866 21 163.853 21H160.733V15.56ZM169.373 21C168.989 21 168.695 20.9413 168.493 20.824C168.29 20.696 168.146 20.488 168.061 20.2C167.975 19.9013 167.933 19.4747 167.933 18.92V13.48H170.013V18.92C170.013 19.464 170.087 19.8693 170.237 20.136C170.386 20.392 170.685 20.52 171.133 20.52H171.293V21H169.373ZM163.533 20.36C163.938 20.36 164.279 20.2373 164.557 19.992C164.834 19.736 164.973 19.3253 164.973 18.76C164.973 18.1947 164.834 17.7893 164.557 17.544C164.279 17.288 163.938 17.16 163.533 17.16C163.277 17.16 163.037 17.1973 162.813 17.272V20.248C163.037 20.3227 163.277 20.36 163.533 20.36ZM175.553 21.16C174.817 21.16 174.172 20.9893 173.617 20.648C173.063 20.3067 172.631 19.8427 172.321 19.256C172.023 18.6587 171.873 17.9867 171.873 17.24C171.873 16.408 172.023 15.6987 172.321 15.112C172.631 14.5253 173.052 14.0827 173.585 13.784C174.119 13.4747 174.721 13.32 175.393 13.32C176.055 13.32 176.652 13.4533 177.185 13.72C177.719 13.9867 178.14 14.3653 178.449 14.856C178.759 15.336 178.913 15.8907 178.913 16.52C178.913 16.7227 178.903 16.952 178.881 17.208L178.849 17.528H174.033C174.033 18.5413 174.188 19.2827 174.497 19.752C174.807 20.2107 175.239 20.44 175.793 20.44C176.305 20.44 176.732 20.328 177.073 20.104C177.425 19.8693 177.761 19.5387 178.081 19.112L178.577 19.48C178.268 19.96 177.879 20.36 177.409 20.68C176.951 21 176.332 21.16 175.553 21.16ZM176.753 16.808C176.753 15.8053 176.636 15.096 176.401 14.68C176.167 14.2533 175.831 14.04 175.393 14.04C174.988 14.04 174.657 14.2587 174.401 14.696C174.156 15.1227 174.033 15.8267 174.033 16.808H176.753ZM70.52 30.52C70.52 29.976 70.4453 29.576 70.296 29.32C70.1467 29.0533 69.848 28.92 69.4 28.92H69.24V28.44H78.84V39H76.76V29.16H72.6V39H70.52V30.52ZM81.5033 41.64C82.0899 41.64 82.5646 41.528 82.9273 41.304C83.2899 41.08 83.5833 40.6747 83.8073 40.088L84.1432 39.224L81.2633 32.92C80.9113 32.152 80.4153 31.7253 79.7752 31.64V31.32H81.1833C81.6526 31.32 82.0686 31.4373 82.4313 31.672C82.7939 31.896 83.0713 32.2053 83.2633 32.6L85.1033 36.632L87.0553 31.48H87.9033L84.6713 40.04C84.3726 40.872 84.0259 41.4373 83.6313 41.736C83.2366 42.0453 82.7406 42.2 82.1432 42.2H81.5033V41.64ZM91.0039 32.2H90.5239C90.0225 32.2 89.6439 32.3333 89.3879 32.6C89.1319 32.8667 89.0039 33.2933 89.0039 33.88H88.5239V32.76C88.5239 31.9067 88.9239 31.48 89.7239 31.48H95.4999V32.2H93.0839V39H91.0039V32.2ZM99.6939 39.16C98.9579 39.16 98.3125 38.9893 97.7579 38.648C97.2032 38.3067 96.7712 37.8427 96.4619 37.256C96.1632 36.6587 96.0139 35.9867 96.0139 35.24C96.0139 34.408 96.1632 33.6987 96.4619 33.112C96.7712 32.5253 97.1925 32.0827 97.7259 31.784C98.2592 31.4747 98.8619 31.32 99.5339 31.32C100.195 31.32 100.793 31.4533 101.326 31.72C101.859 31.9867 102.281 32.3653 102.59 32.856C102.899 33.336 103.054 33.8907 103.054 34.52C103.054 34.7227 103.043 34.952 103.022 35.208L102.99 35.528H98.1739C98.1739 36.5413 98.3285 37.2827 98.6379 37.752C98.9472 38.2107 99.3792 38.44 99.9339 38.44C100.446 38.44 100.873 38.328 101.214 38.104C101.566 37.8693 101.902 37.5387 102.222 37.112L102.718 37.48C102.409 37.96 102.019 38.36 101.55 38.68C101.091 39 100.473 39.16 99.6939 39.16ZM100.894 34.808C100.894 33.8053 100.777 33.096 100.542 32.68C100.307 32.2533 99.9712 32.04 99.5339 32.04C99.1285 32.04 98.7979 32.2587 98.5419 32.696C98.2965 33.1227 98.1739 33.8267 98.1739 34.808H100.894ZM104.827 33.56C104.827 33.016 104.752 32.616 104.603 32.36C104.453 32.0933 104.155 31.96 103.707 31.96H103.546V31.48H105.467C105.851 31.48 106.144 31.544 106.347 31.672C106.549 31.8 106.693 32.0133 106.779 32.312C106.864 32.6 106.907 33.016 106.907 33.56V38.28H108.747V31.48H110.827V38.28H112.667V31.48H114.747V39H104.827V33.56ZM119.975 39.16C119.239 39.16 118.594 38.9893 118.039 38.648C117.484 38.3067 117.052 37.8427 116.743 37.256C116.444 36.6587 116.295 35.9867 116.295 35.24C116.295 34.408 116.444 33.6987 116.743 33.112C117.052 32.5253 117.474 32.0827 118.007 31.784C118.54 31.4747 119.143 31.32 119.815 31.32C120.476 31.32 121.074 31.4533 121.607 31.72C122.14 31.9867 122.562 32.3653 122.871 32.856C123.18 33.336 123.335 33.8907 123.335 34.52C123.335 34.7227 123.324 34.952 123.303 35.208L123.271 35.528H118.455C118.455 36.5413 118.61 37.2827 118.919 37.752C119.228 38.2107 119.66 38.44 120.215 38.44C120.727 38.44 121.154 38.328 121.495 38.104C121.847 37.8693 122.183 37.5387 122.503 37.112L122.999 37.48C122.69 37.96 122.3 38.36 121.831 38.68C121.372 39 120.754 39.16 119.975 39.16ZM121.175 34.808C121.175 33.8053 121.058 33.096 120.823 32.68C120.588 32.2533 120.252 32.04 119.815 32.04C119.41 32.04 119.079 32.2587 118.823 32.696C118.578 33.1227 118.455 33.8267 118.455 34.808H121.175ZM128.26 39.16C127.438 39.16 126.74 38.984 126.164 38.632C125.588 38.28 125.15 37.8107 124.852 37.224C124.564 36.6267 124.42 35.9653 124.42 35.24C124.42 34.5147 124.564 33.8587 124.852 33.272C125.15 32.6747 125.588 32.2 126.164 31.848C126.74 31.496 127.438 31.32 128.26 31.32C129.54 31.32 130.366 31.5067 130.74 31.88C130.921 32.0613 131.033 32.3013 131.076 32.6C131.118 32.8987 131.14 33.4053 131.14 34.12H130.66C130.617 33.448 130.409 32.936 130.036 32.584C129.662 32.2213 129.15 32.04 128.5 32.04C127.913 32.04 127.444 32.312 127.092 32.856C126.75 33.3893 126.58 34.184 126.58 35.24C126.58 37.3733 127.246 38.44 128.58 38.44C129.092 38.44 129.518 38.328 129.86 38.104C130.212 37.8693 130.548 37.5387 130.868 37.112L131.364 37.48C131.054 37.96 130.665 38.36 130.196 38.68C129.726 39 129.081 39.16 128.26 39.16ZM134.613 32.2H134.133C133.632 32.2 133.253 32.3333 132.997 32.6C132.741 32.8667 132.613 33.2933 132.613 33.88H132.133V32.76C132.133 31.9067 132.533 31.48 133.333 31.48H139.109V32.2H136.693V39H134.613V32.2ZM140.434 33.56C140.434 33.016 140.359 32.616 140.21 32.36C140.061 32.0933 139.762 31.96 139.314 31.96H139.234V31.48H143.522C144.514 31.48 145.298 31.6453 145.874 31.976C146.461 32.3067 146.754 32.7813 146.754 33.4C146.754 33.8693 146.578 34.248 146.226 34.536C145.874 34.8133 145.373 34.9947 144.722 35.08C145.437 35.176 146.007 35.384 146.434 35.704C146.861 36.0133 147.074 36.4187 147.074 36.92C147.074 38.3067 145.89 39 143.522 39H140.434V33.56ZM143.074 34.68C143.501 34.68 143.858 34.568 144.146 34.344C144.445 34.1093 144.594 33.7947 144.594 33.4C144.594 32.984 144.455 32.6693 144.178 32.456C143.911 32.232 143.597 32.12 143.234 32.12C142.978 32.12 142.738 32.1573 142.514 32.232V34.68H143.074ZM143.234 38.36C143.735 38.36 144.141 38.2373 144.45 37.992C144.759 37.736 144.914 37.3787 144.914 36.92C144.914 36.4187 144.749 36.04 144.418 35.784C144.098 35.528 143.65 35.4 143.074 35.4H142.514V38.248C142.738 38.3227 142.978 38.36 143.234 38.36ZM148.905 33.56C148.905 33.016 148.83 32.616 148.681 32.36C148.531 32.0933 148.233 31.96 147.785 31.96H147.625V31.48H149.545C149.929 31.48 150.222 31.544 150.425 31.672C150.627 31.8 150.771 32.0133 150.857 32.312C150.942 32.6 150.985 33.016 150.985 33.56V37L153.865 31.48H155.785V39H153.705V33.48L150.825 39H148.905V33.56ZM158.03 39.24C157.657 39.24 157.31 39.1867 156.99 39.08V38.664C157.481 38.6 157.934 38.2053 158.35 37.48L159.31 35.816C158.745 35.7307 158.297 35.5067 157.966 35.144C157.635 34.7707 157.47 34.3227 157.47 33.8C157.47 33 157.779 32.4133 158.398 32.04C159.027 31.6667 159.891 31.48 160.99 31.48H165.15V31.96H165.07C164.622 31.96 164.323 32.0933 164.174 32.36C164.025 32.616 163.95 33.016 163.95 33.56V39H161.87V35.896H161.166L160.206 37.8C159.961 38.3013 159.673 38.6693 159.342 38.904C159.022 39.128 158.585 39.24 158.03 39.24ZM161.15 35.24C161.342 35.24 161.507 35.224 161.646 35.192C161.785 35.1493 161.859 35.128 161.87 35.128V32.232C161.859 32.232 161.785 32.216 161.646 32.184C161.507 32.1413 161.342 32.12 161.15 32.12C160.702 32.12 160.334 32.2427 160.046 32.488C159.769 32.7227 159.63 33.1067 159.63 33.64C159.63 34.1733 159.774 34.5733 160.062 34.84C160.35 35.1067 160.713 35.24 161.15 35.24Z" fill="white"/>
<path d="M5.65302 13.5763C6.04952 13.0433 6.57169 12.3218 6.98985 11.8062C8.24219 10.3848 8.40469 10.1985 9.54435 9.14767C9.88235 8.87033 10.2832 8.53667 10.6754 8.2225C7.78285 10.6708 7.41452 13.3813 10.0687 15.0562C10.0644 15.0562 10.0644 15.0562 10.0644 15.0605C13.7759 17.2965 21.9095 16.8133 28.3272 13.949C34.5434 11.1757 36.8379 7.2085 33.7699 4.85117C31.0767 4.34633 27.8657 4.28783 24.4684 4.74283L24.1152 4.16L24.4077 3.19367C26.4054 3.01383 28.3034 3.05717 29.9414 3.33667C30.3379 3.40383 30.86 3.51867 31.25 3.601C32.004 3.78517 32.4135 3.89567 32.9054 4.05383C33.408 4.20333 33.837 4.35283 34.5845 4.63017C35.3169 4.91833 35.6332 5.04833 36.2204 5.34083C36.8779 5.64084 37.5168 5.98018 38.1335 6.357C43.0215 9.4315 39.9817 15.041 31.3562 18.8847C22.7545 22.7153 11.7934 23.3177 6.88152 20.28C6.87935 20.2757 6.87285 20.2713 6.85985 20.267H6.86852C4.18619 18.5683 3.90452 16.1027 5.65302 13.5763V13.5763ZM28.0325 35.0697L27.9632 31.616L25.5084 28.886C17.3985 30.7233 9.42735 30.329 4.99435 27.7182C4.97919 27.7008 4.94235 27.6835 4.92719 27.6662C2.41819 26.1213 1.79852 24.128 1.98702 21.9613C1.39985 25.1312 1.35219 26.2752 1.43669 28.9878C1.54069 30.6865 2.52219 32.253 4.49602 33.488L4.51119 33.5053C9.23669 36.4433 19.082 37.0803 28.0325 35.0697ZM38.27 39.0238C26.8235 43.615 12.4975 43.8858 6.27485 39.637C6.94686 41.2793 7.86124 42.8115 8.98752 44.1827C14.6989 48.0827 27.8484 47.8335 38.3502 43.6193C44.497 41.1558 48.3754 37.8777 49.3937 34.8053L49.6797 33.8802C50.3579 31.5358 50.4857 29.5837 50.594 27.846C50.4705 31.6182 46.0267 35.9082 38.27 39.0238V39.0238ZM13.0024 47.866C13.362 48.2083 14.493 49.5972 20.2239 51.1312C21.773 51.4735 25.673 52.572 32.8772 50.9752L32.9205 50.3187L32.3507 49.426C25.6665 51.0077 18.2414 50.479 13.0024 47.866V47.866ZM29.5427 20.5465L35.6289 25.1593C35.6289 25.1593 36.931 26.0975 35.7025 26.7562C34.4784 27.4083 31.3345 29.0052 31.3345 29.0052L28.2297 27.846L26.6719 28.5393L29.4192 30.9248L29.4409 34.6363L31.055 33.9192L32.1254 30.784C32.1254 30.784 35.4122 29.5187 36.7165 29.042C38.0274 28.5762 37.8519 30.1708 37.8519 30.1708L37.2062 37.778L39.3512 36.8247L42.8829 26.5612C42.8829 26.5612 44.7549 25.6512 46.0722 24.8517C47.3874 24.0522 47.838 22.7262 47.838 22.7262C47.838 22.7262 46.5554 22.1737 45.0777 22.6178C43.6 23.0577 41.6739 23.842 41.6739 23.842L31.6812 19.5975L29.5427 20.5465V20.5465ZM16.6662 5.95183L20.798 9.243L21.9269 9.074L19.6779 6.12083C19.6779 6.12083 19.1882 5.50983 19.8469 5.36467C20.5099 5.21733 22.1869 4.875 22.1869 4.875L23.4479 5.8825L24.2972 5.75683L23.3352 4.22717L23.8422 2.53067L23.021 2.64983L22.0482 3.94117C22.0482 3.94117 20.3409 4.1015 19.6692 4.15783C18.9932 4.20983 19.2835 3.484 19.2835 3.484L20.5792 0L19.4439 0.166833L16.4539 4.51967C16.4539 4.51967 15.4572 4.70167 14.7357 4.9075C14.012 5.11117 13.6307 5.67017 13.6307 5.67017C13.6307 5.67017 14.1615 6.09917 14.909 6.084C15.663 6.06883 16.6662 5.95183 16.6662 5.95183V5.95183ZM37.087 48.2408L34.4134 46.8433L33.798 47.0578L35.3819 48.4748C35.3819 48.4748 35.7199 48.763 35.3645 48.9168C35.0092 49.0685 34.1035 49.4412 34.1035 49.4412L33.356 49.1075L32.9119 49.2678L33.5337 49.9308L33.473 50.8993L33.9367 50.739L34.2834 49.9525C34.2834 49.9525 35.2237 49.673 35.5985 49.5733C35.9712 49.4715 35.8867 49.9092 35.8867 49.9092L35.5335 52L36.151 51.7855L37.3622 49.0208C37.3622 49.0208 37.8974 48.8107 38.2809 48.6178C38.6644 48.425 38.816 48.0697 38.816 48.0697C38.816 48.0697 38.4759 47.8833 38.0555 47.9765C37.633 48.0653 37.087 48.2408 37.087 48.2408Z" fill="white"/>
</svg>
