<?xml version="1.0" encoding="utf-8"?><svg viewBox="0 0 195 52" xmlns="http://www.w3.org/2000/svg" xmlns:xlink="http://www.w3.org/1999/xlink"><style>:root>svg{display:none}:root>svg:target{display:block}</style><svg fill="none" viewBox="0 0 195 52" id="logo" xmlns="http://www.w3.org/2000/svg"><path d="M70.52 12.52c0-.544-.075-.944-.224-1.2-.15-.267-.448-.4-.896-.4h-.16v-.48h1.92c.384 0 .677.064.88.192.203.128.347.341.432.64.085.288.128.704.128 1.248v2.64h4.32v-4.72H79v8.48c0 .544.075.95.224 1.216.15.256.448.384.896.384h.16V21h-1.92c-.384 0-.677-.059-.88-.176-.203-.128-.347-.336-.432-.624-.085-.299-.128-.725-.128-1.28v-3.04H72.6V21h-2.08v-8.48zm14.127 8.64c-.736 0-1.381-.17-1.936-.512a3.541 3.541 0 01-1.296-1.392c-.299-.597-.448-1.27-.448-2.016 0-.832.15-1.541.448-2.128.31-.587.73-1.03 1.264-1.328.533-.31 1.136-.464 1.808-.464a3.95 3.95 0 011.792.4c.533.267.955.645 1.264 1.136.31.48.464 1.035.464 1.664 0 .203-.01.432-.032.688l-.032.32h-4.816c0 1.013.155 1.755.464 2.224.31.459.741.688 1.296.688.512 0 .939-.112 1.28-.336.352-.235.688-.565 1.008-.992l.496.368c-.31.48-.699.88-1.168 1.2-.459.32-1.077.48-1.856.48zm1.2-4.352c0-1.003-.117-1.712-.352-2.128-.235-.427-.57-.64-1.008-.64-.405 0-.736.219-.992.656-.245.427-.368 1.13-.368 2.112h2.72zm6.109 4.352c-1.312 0-2.299-.427-2.96-1.28l.48-.4c.512.64 1.178.96 2 .96.512 0 .917-.117 1.216-.352.309-.235.464-.597.464-1.088 0-.523-.144-.907-.432-1.152-.278-.245-.774-.368-1.488-.368h-.8v-.72h.8c.629 0 1.066-.101 1.312-.304.245-.213.368-.565.368-1.056 0-.448-.139-.784-.416-1.008-.278-.235-.619-.352-1.024-.352-.48 0-.886.165-1.216.496-.331.32-.512.741-.544 1.264h-.48c0-.555.021-.965.064-1.232.042-.277.154-.507.336-.688.192-.192.485-.33.88-.416a5.783 5.783 0 011.36-.144c.992 0 1.77.176 2.336.528.576.341.864.859.864 1.552 0 .47-.176.859-.528 1.168-.342.31-.806.507-1.392.592.661.085 1.184.293 1.568.624.394.33.592.736.592 1.216 0 .736-.294 1.28-.88 1.632-.587.352-1.414.528-2.48.528zm7.103 0c-.864 0-1.536-.192-2.016-.576-.47-.395-.704-.923-.704-1.584 0-.533.123-.976.368-1.328.256-.352.699-.619 1.328-.8.63-.181 1.504-.272 2.624-.272h.24c0-.928-.128-1.584-.384-1.968-.256-.395-.635-.592-1.136-.592-.416 0-.757.101-1.024.304-.267.203-.459.581-.576 1.136h-.88c0-.363.021-.672.064-.928.053-.256.165-.48.336-.672.33-.373 1.13-.56 2.4-.56 1.067 0 1.877.283 2.432.848.565.555.848 1.392.848 2.512V21h-1.36l-.56-.72h-.08c-.096.15-.245.299-.448.448-.363.288-.853.432-1.472.432zm.48-.8c.224 0 .416-.043.576-.128.16-.096.315-.224.464-.384.139-.15.245-.325.32-.528v-2h-.24c-.757 0-1.307.139-1.648.416-.341.267-.512.688-.512 1.264 0 .437.09.773.272 1.008.181.235.437.352.768.352zm8.674.8c-1.131 0-2.027-.347-2.688-1.04-.662-.704-.992-1.69-.992-2.96v-.48c0-1.301.112-2.33.335-3.088.235-.768.55-1.323.944-1.664.406-.352.918-.597 1.537-.736l2.224-.512c.49-.117.853-.23 1.088-.336.245-.117.389-.272.432-.464h.48v1.28c0 .555-.32.901-.96 1.04l-2.624.592a3.082 3.082 0 00-1.696 1.056c-.438.523-.678 1.253-.72 2.192h.08c.266-.672.629-1.184 1.088-1.536.458-.363 1.056-.544 1.792-.544 1.013 0 1.824.304 2.432.912.618.597.927 1.493.927 2.688 0 1.205-.325 2.107-.975 2.704-.64.597-1.542.896-2.704.896zm0-.72c.405 0 .757-.219 1.056-.656.309-.437.464-1.179.464-2.224 0-.693-.08-1.253-.24-1.68-.15-.437-.342-.747-.576-.928-.224-.181-.459-.272-.704-.272-.246 0-.486.09-.72.272-.224.181-.416.49-.576.928-.15.427-.224.987-.224 1.68 0 1.045.149 1.787.448 2.224.309.437.666.656 1.072.656zm5.582-4.88c0-.544-.074-.944-.224-1.2-.149-.267-.448-.4-.896-.4h-.16v-.48h1.92c.384 0 .678.064.88.192.203.128.347.341.432.64.086.288.128.704.128 1.248v.96h1.04c1.014 0 1.814.197 2.4.592.587.384.88.933.88 1.648 0 .715-.293 1.27-.88 1.664-.586.384-1.386.576-2.4.576h-3.12v-5.44zm8.64 5.44c-.384 0-.677-.059-.88-.176-.202-.128-.346-.336-.432-.624-.085-.299-.128-.725-.128-1.28v-5.44h2.08v5.44c0 .544.075.95.224 1.216.15.256.448.384.896.384h.16V21h-1.92zm-5.84-.64c.406 0 .747-.123 1.024-.368.278-.256.416-.667.416-1.232s-.138-.97-.416-1.216a1.452 1.452 0 00-1.024-.384c-.256 0-.496.037-.72.112v2.976c.224.075.464.112.72.112zm8.933-4.8c0-.544-.075-.944-.224-1.2-.15-.267-.448-.4-.896-.4h-.08v-.48h4.288c.992 0 1.776.165 2.352.496.586.33.88.805.88 1.424 0 .47-.176.848-.528 1.136-.352.277-.854.459-1.504.544.714.096 1.285.304 1.712.624.426.31.64.715.64 1.216 0 1.387-1.184 2.08-3.552 2.08h-3.088v-5.44zm2.64 1.12c.426 0 .784-.112 1.072-.336a1.14 1.14 0 00.448-.944c0-.416-.139-.73-.416-.944a1.423 1.423 0 00-.944-.336c-.256 0-.496.037-.72.112v2.448h.56zm.16 3.68c.501 0 .906-.123 1.216-.368.309-.256.464-.613.464-1.072 0-.501-.166-.88-.496-1.136-.32-.256-.768-.384-1.344-.384h-.56v2.848c.224.075.464.112.72.112zm7.59.8c-.864 0-1.536-.192-2.016-.576-.469-.395-.704-.923-.704-1.584 0-.533.123-.976.368-1.328.256-.352.699-.619 1.328-.8.63-.181 1.504-.272 2.624-.272h.24c0-.928-.128-1.584-.384-1.968-.256-.395-.634-.592-1.136-.592-.416 0-.757.101-1.024.304-.266.203-.458.581-.576 1.136h-.88c0-.363.022-.672.064-.928.054-.256.166-.48.336-.672.331-.373 1.131-.56 2.4-.56 1.067 0 1.878.283 2.432.848.566.555.848 1.392.848 2.512V21h-1.36l-.56-.72h-.08c-.096.15-.245.299-.448.448-.362.288-.853.432-1.472.432zm.48-.8c.224 0 .416-.043.576-.128.16-.096.315-.224.464-.384.139-.15.246-.325.32-.528v-2h-.24c-.757 0-1.306.139-1.648.416-.341.267-.512.688-.512 1.264 0 .437.091.773.272 1.008.182.235.438.352.768.352zm8.546.8c-.736 0-1.381-.17-1.936-.512a3.537 3.537 0 01-1.296-1.392c-.299-.597-.448-1.27-.448-2.016 0-.832.149-1.541.448-2.128.309-.587.731-1.03 1.264-1.328.533-.31 1.136-.464 1.808-.464a3.95 3.95 0 011.792.4c.533.267.955.645 1.264 1.136.309.48.464 1.035.464 1.664 0 .203-.011.432-.032.688l-.032.32h-4.816c0 1.013.155 1.755.464 2.224.309.459.741.688 1.296.688.512 0 .939-.112 1.28-.336.352-.235.688-.565 1.008-.992l.496.368c-.309.48-.699.88-1.168 1.2-.459.32-1.077.48-1.856.48zm1.2-4.352c0-1.003-.117-1.712-.352-2.128-.235-.427-.571-.64-1.008-.64-.405 0-.736.219-.992.656-.245.427-.368 1.13-.368 2.112h2.72zm13.293 4.592c-1.142 0-1.968-.25-2.48-.752-.512-.512-.768-1.301-.768-2.368v-2.784L153.885 21h-.528l-2.784-5.664v5.648h-.8V13.48h1.952l2.368 4.816 2.08-4.976h2.096v4.96c0 .907.085 1.568.256 1.984.17.416.474.661.912.736v.4zm1.296-5.84c0-.544-.075-.944-.224-1.2-.15-.267-.448-.4-.896-.4h-.16v-.48h1.92c.384 0 .677.064.88.192.202.128.346.341.432.64.085.288.128.704.128 1.248v.96h1.04c1.013 0 1.813.197 2.4.592.586.384.88.933.88 1.648 0 .715-.294 1.27-.88 1.664-.587.384-1.387.576-2.4.576h-3.12v-5.44zm8.64 5.44c-.384 0-.678-.059-.88-.176-.203-.128-.347-.336-.432-.624-.086-.299-.128-.725-.128-1.28v-5.44h2.08v5.44c0 .544.074.95.224 1.216.149.256.448.384.896.384h.16V21h-1.92zm-5.84-.64c.405 0 .746-.123 1.024-.368.277-.256.416-.667.416-1.232s-.139-.97-.416-1.216a1.455 1.455 0 00-1.024-.384c-.256 0-.496.037-.72.112v2.976c.224.075.464.112.72.112zm12.02.8c-.736 0-1.381-.17-1.936-.512a3.552 3.552 0 01-1.296-1.392c-.298-.597-.448-1.27-.448-2.016 0-.832.15-1.541.448-2.128.31-.587.731-1.03 1.264-1.328.534-.31 1.136-.464 1.808-.464.662 0 1.259.133 1.792.4.534.267.955.645 1.264 1.136.31.48.464 1.035.464 1.664 0 .203-.01.432-.032.688l-.032.32h-4.816c0 1.013.155 1.755.464 2.224.31.459.742.688 1.296.688.512 0 .939-.112 1.28-.336.352-.235.688-.565 1.008-.992l.496.368a4.16 4.16 0 01-1.168 1.2c-.458.32-1.077.48-1.856.48zm1.2-4.352c0-1.003-.117-1.712-.352-2.128-.234-.427-.57-.64-1.008-.64-.405 0-.736.219-.992.656-.245.427-.368 1.13-.368 2.112h2.72zM70.52 30.52c0-.544-.075-.944-.224-1.2-.15-.267-.448-.4-.896-.4h-.16v-.48h9.6V39h-2.08v-9.84H72.6V39h-2.08v-8.48zm10.983 11.12c.587 0 1.062-.112 1.424-.336.363-.224.656-.63.88-1.216l.336-.864-2.88-6.304c-.352-.768-.848-1.195-1.488-1.28v-.32h1.408c.47 0 .886.117 1.248.352.363.224.64.533.832.928l1.84 4.032 1.952-5.152h.848l-3.232 8.56c-.298.832-.645 1.397-1.04 1.696-.394.31-.89.464-1.488.464h-.64v-.56zm9.5-9.44h-.48c-.5 0-.88.133-1.135.4-.256.267-.384.693-.384 1.28h-.48v-1.12c0-.853.4-1.28 1.2-1.28H95.5v.72h-2.416V39h-2.08v-6.8zm8.69 6.96c-.735 0-1.38-.17-1.935-.512a3.541 3.541 0 01-1.296-1.392c-.299-.597-.448-1.27-.448-2.016 0-.832.15-1.541.448-2.128.31-.587.73-1.03 1.264-1.328.533-.31 1.136-.464 1.808-.464.661 0 1.259.133 1.792.4.533.267.955.645 1.264 1.136.309.48.464 1.035.464 1.664 0 .203-.011.432-.032.688l-.032.32h-4.816c0 1.013.154 1.755.464 2.224.31.459.741.688 1.296.688.512 0 .939-.112 1.28-.336.352-.235.688-.565 1.008-.992l.496.368c-.309.48-.699.88-1.168 1.2-.459.32-1.077.48-1.856.48zm1.201-4.352c0-1.003-.117-1.712-.352-2.128-.235-.427-.57-.64-1.008-.64-.406 0-.736.219-.992.656-.246.427-.368 1.13-.368 2.112h2.72zm3.933-1.248c0-.544-.075-.944-.224-1.2-.15-.267-.448-.4-.896-.4h-.161v-.48h1.921c.384 0 .677.064.88.192.202.128.346.341.432.64.085.288.128.704.128 1.248v4.72h1.84v-6.8h2.08v6.8h1.84v-6.8h2.08V39h-9.92v-5.44zm15.148 5.6c-.736 0-1.381-.17-1.936-.512a3.537 3.537 0 01-1.296-1.392c-.299-.597-.448-1.27-.448-2.016 0-.832.149-1.541.448-2.128.309-.587.731-1.03 1.264-1.328.533-.31 1.136-.464 1.808-.464a3.95 3.95 0 011.792.4c.533.267.955.645 1.264 1.136.309.48.464 1.035.464 1.664 0 .203-.011.432-.032.688l-.032.32h-4.816c0 1.013.155 1.755.464 2.224.309.459.741.688 1.296.688.512 0 .939-.112 1.28-.336.352-.235.688-.565 1.008-.992l.496.368c-.309.48-.699.88-1.168 1.2-.459.32-1.077.48-1.856.48zm1.2-4.352c0-1.003-.117-1.712-.352-2.128-.235-.427-.571-.64-1.008-.64-.405 0-.736.219-.992.656-.245.427-.368 1.13-.368 2.112h2.72zm7.085 4.352c-.822 0-1.52-.176-2.096-.528a3.465 3.465 0 01-1.312-1.408 4.508 4.508 0 01-.432-1.984c0-.725.144-1.381.432-1.968a3.441 3.441 0 011.312-1.424c.576-.352 1.274-.528 2.096-.528 1.28 0 2.106.187 2.48.56.181.181.293.421.336.72.042.299.064.805.064 1.52h-.48c-.043-.672-.251-1.184-.624-1.536-.374-.363-.886-.544-1.536-.544-.587 0-1.056.272-1.408.816-.342.533-.512 1.328-.512 2.384 0 2.133.666 3.2 2 3.2.512 0 .938-.112 1.28-.336.352-.235.688-.565 1.008-.992l.496.368c-.31.48-.699.88-1.168 1.2-.47.32-1.115.48-1.936.48zm6.353-6.96h-.48c-.501 0-.88.133-1.136.4-.256.267-.384.693-.384 1.28h-.48v-1.12c0-.853.4-1.28 1.2-1.28h5.776v.72h-2.416V39h-2.08v-6.8zm5.821 1.36c0-.544-.075-.944-.224-1.2-.149-.267-.448-.4-.896-.4h-.08v-.48h4.288c.992 0 1.776.165 2.352.496.587.33.88.805.88 1.424 0 .47-.176.848-.528 1.136-.352.277-.853.459-1.504.544.715.096 1.285.304 1.712.624.427.31.64.715.64 1.216 0 1.387-1.184 2.08-3.552 2.08h-3.088v-5.44zm2.64 1.12c.427 0 .784-.112 1.072-.336.299-.235.448-.55.448-.944 0-.416-.139-.73-.416-.944a1.421 1.421 0 00-.944-.336c-.256 0-.496.037-.72.112v2.448h.56zm.16 3.68c.501 0 .907-.123 1.216-.368.309-.256.464-.613.464-1.072 0-.501-.165-.88-.496-1.136-.32-.256-.768-.384-1.344-.384h-.56v2.848c.224.075.464.112.72.112zm5.671-4.8c0-.544-.075-.944-.224-1.2-.15-.267-.448-.4-.896-.4h-.16v-.48h1.92c.384 0 .677.064.88.192.202.128.346.341.432.64.085.288.128.704.128 1.248V37l2.88-5.52h1.92V39h-2.08v-5.52l-2.88 5.52h-1.92v-5.44zm9.125 5.68a3.27 3.27 0 01-1.04-.16v-.416c.491-.064.944-.459 1.36-1.184l.96-1.664c-.565-.085-1.013-.31-1.344-.672a1.956 1.956 0 01-.496-1.344c0-.8.309-1.387.928-1.76.629-.373 1.493-.56 2.592-.56h4.16v.48h-.08c-.448 0-.747.133-.896.4-.149.256-.224.656-.224 1.2V39h-2.08v-3.104h-.704l-.96 1.904c-.245.501-.533.87-.864 1.104-.32.224-.757.336-1.312.336zm3.12-4c.192 0 .357-.016.496-.048.139-.043.213-.064.224-.064v-2.896c-.011 0-.085-.016-.224-.048a1.698 1.698 0 00-.496-.064c-.448 0-.816.123-1.104.368-.277.235-.416.619-.416 1.152 0 .533.144.933.432 1.2.288.267.651.4 1.088.4zM5.653 13.576c.397-.533.919-1.254 1.337-1.77 1.252-1.421 1.415-1.607 2.554-2.658.338-.278.74-.611 1.131-.925-2.892 2.448-3.26 5.158-.606 6.833-.005 0-.005 0-.005.005 3.712 2.236 11.846 1.752 18.263-1.112 6.216-2.773 8.51-6.74 5.443-9.098-2.693-.505-5.904-.563-9.302-.108l-.353-.583.293-.966c1.997-.18 3.895-.137 5.533.143.397.067.919.182 1.309.264.754.184 1.163.295 1.655.453.503.15.932.299 1.68.576.732.288 1.048.418 1.635.71a18 18 0 011.913 1.017c4.889 3.074 1.849 8.684-6.777 12.528-8.602 3.83-19.563 4.433-24.474 1.395-.003-.004-.01-.009-.022-.013h.009c-2.683-1.699-2.964-4.164-1.216-6.69zm22.38 21.494l-.07-3.454-2.455-2.73c-8.11 1.837-16.08 1.443-20.514-1.168-.015-.017-.052-.035-.067-.052-2.509-1.545-3.128-3.538-2.94-5.705-.587 3.17-.635 4.314-.55 7.027.104 1.698 1.085 3.265 3.059 4.5l.015.017c4.726 2.938 14.571 3.575 23.521 1.565zm10.237 3.954c-11.447 4.591-25.773 4.862-31.995.613a17.756 17.756 0 002.713 4.546c5.71 3.9 18.86 3.65 29.362-.564 6.147-2.463 10.025-5.741 11.044-8.814l.286-.925c.678-2.344.806-4.296.914-6.034-.123 3.772-4.567 8.062-12.324 11.178zm-25.268 8.842c.36.342 1.491 1.731 7.222 3.265 1.549.343 5.449 1.441 12.653-.156l.043-.656-.57-.893c-6.684 1.582-14.109 1.053-19.348-1.56zm16.54-27.32l6.087 4.613s1.302.939.074 1.597c-1.225.652-4.369 2.25-4.369 2.25l-3.104-1.16-1.558.693 2.747 2.386.022 3.711 1.614-.717 1.07-3.135s3.287-1.265 4.592-1.742c1.31-.466 1.135 1.129 1.135 1.129l-.646 7.607 2.145-.953 3.532-10.264s1.872-.91 3.19-1.71c1.314-.799 1.765-2.125 1.765-2.125s-1.283-.552-2.76-.108c-1.478.44-3.404 1.224-3.404 1.224l-9.993-4.244-2.138.949zM16.667 5.953l4.132 3.291 1.129-.169-2.25-2.953s-.489-.611.17-.756c.663-.148 2.34-.49 2.34-.49l1.26 1.008.85-.126-.962-1.53.507-1.696-.821.119-.973 1.291s-1.707.16-2.379.217c-.676.052-.386-.674-.386-.674L20.58 0l-1.135.167-2.99 4.353s-.997.182-1.718.388c-.724.203-1.105.762-1.105.762s.53.43 1.278.414c.754-.015 1.757-.132 1.757-.132zM37.087 48.24l-2.674-1.398-.615.215 1.584 1.417s.338.288-.017.442c-.356.151-1.262.524-1.262.524l-.747-.334-.444.16.622.664-.061.968.464-.16.346-.786s.94-.28 1.316-.38c.372-.102.288.336.288.336L35.533 52l.618-.215 1.211-2.764s.535-.21.919-.403c.383-.193.535-.548.535-.548s-.34-.187-.76-.093c-.423.088-.969.264-.969.264z" fill="#fff"/></svg></svg>