<svg width="20" height="20" viewBox="0 0 20 20" fill="none" xmlns="http://www.w3.org/2000/svg">
<path d="M11 7C13.464 7 14.863 8.573 15.066 10.474H15.128C16.714 10.474 18 11.711 18 13.237C18 14.763 16.714 16 15.128 16H6.872C5.286 16 4 14.763 4 13.237C4 11.711 5.286 10.474 6.872 10.474H6.934C7.138 8.56 8.535 7 11 7ZM3.803 9.7C3.84144 9.81087 3.83967 9.93172 3.79799 10.0414C3.7563 10.1511 3.67737 10.2426 3.575 10.3L3.493 10.336L2.692 10.612C2.57379 10.6534 2.44437 10.6489 2.32932 10.5994C2.21427 10.5499 2.12198 10.4591 2.0707 10.3448C2.01941 10.2306 2.01287 10.1012 2.05237 9.98237C2.09187 9.86352 2.17453 9.76383 2.284 9.703L2.366 9.667L3.168 9.391C3.29332 9.348 3.43058 9.35649 3.54964 9.41461C3.6687 9.47274 3.75983 9.57574 3.803 9.701V9.7ZM8.92 5.5C9.252 5.662 9.545 5.873 9.793 6.12C8.031 6.484 6.763 7.653 6.25 9.276L6.185 9.5L6.139 9.687L5.973 9.717C5.52938 9.80834 5.10591 9.97908 4.723 10.221C4.33648 9.61892 4.15742 8.90696 4.21312 8.19366C4.26883 7.48035 4.55624 6.80483 5.03155 6.27005C5.50686 5.73527 6.14399 5.37057 6.84583 5.23155C7.54767 5.09252 8.27572 5.1868 8.919 5.5H8.92ZM2.917 5.67L3 5.702L3.762 6.073C3.87433 6.12761 3.96216 6.22228 4.0082 6.33839C4.05424 6.4545 4.05515 6.58364 4.01075 6.70039C3.96636 6.81714 3.87988 6.91304 3.76833 6.96923C3.65678 7.02542 3.52824 7.03782 3.408 7.004L3.323 6.972L2.562 6.601C2.44967 6.54639 2.36184 6.45172 2.3158 6.33561C2.26976 6.2195 2.26885 6.09036 2.31324 5.97361C2.35764 5.85686 2.44412 5.76096 2.55567 5.70477C2.66722 5.64858 2.79576 5.63618 2.916 5.67H2.917ZM9.99 3.295C10.0953 3.34637 10.1792 3.43308 10.2271 3.53999C10.275 3.64691 10.2838 3.76724 10.252 3.88L10.22 3.964L9.849 4.726C9.79439 4.83833 9.69972 4.92616 9.58361 4.9722C9.4675 5.01824 9.33836 5.01915 9.22161 4.97476C9.10486 4.93036 9.00896 4.84388 8.95277 4.73233C8.89658 4.62078 8.88418 4.49224 8.918 4.372L8.95 4.287L9.321 3.525C9.3498 3.46582 9.39 3.41291 9.43929 3.36931C9.48858 3.3257 9.546 3.29225 9.60824 3.27089C9.67049 3.24952 9.73634 3.24065 9.80203 3.24479C9.86771 3.24892 9.93193 3.26599 9.991 3.295H9.99ZM6.2 3.263L6.237 3.345L6.513 4.147C6.55357 4.26506 6.54852 4.39402 6.49883 4.50853C6.44913 4.62305 6.3584 4.71484 6.24447 4.76585C6.13054 4.81686 6.00164 4.82341 5.88313 4.78421C5.76461 4.74501 5.66504 4.66289 5.604 4.554L5.567 4.472L5.292 3.671C5.25206 3.55322 5.25745 3.42479 5.30712 3.31077C5.35678 3.19676 5.44715 3.10534 5.56059 3.05437C5.67403 3.00339 5.80239 2.99653 5.92062 3.0351C6.03885 3.07368 6.13845 3.15493 6.2 3.263V3.263Z" fill="white"/>
</svg>
