<svg width="50" height="52" viewBox="0 0 50 52" fill="none" xmlns="http://www.w3.org/2000/svg">
<path d="M4.65302 13.5763C5.04952 13.0433 5.57169 12.3218 5.98985 11.8062C7.24219 10.3848 7.40469 10.1985 8.54435 9.14767C8.88235 8.87033 9.28319 8.53667 9.67535 8.2225C6.78285 10.6708 6.41452 13.3813 9.06869 15.0562C9.06435 15.0562 9.06435 15.0562 9.06435 15.0605C12.7759 17.2965 20.9095 16.8133 27.3272 13.949C33.5434 11.1757 35.8379 7.2085 32.7699 4.85117C30.0767 4.34633 26.8657 4.28783 23.4684 4.74283L23.1152 4.16L23.4077 3.19367C25.4054 3.01383 27.3034 3.05717 28.9414 3.33667C29.3379 3.40383 29.86 3.51867 30.25 3.601C31.004 3.78517 31.4135 3.89567 31.9054 4.05383C32.408 4.20333 32.837 4.35283 33.5845 4.63017C34.3169 4.91833 34.6332 5.04833 35.2204 5.34083C35.8779 5.64084 36.5168 5.98018 37.1335 6.357C42.0215 9.4315 38.9817 15.041 30.3562 18.8847C21.7545 22.7153 10.7934 23.3177 5.88152 20.28C5.87935 20.2757 5.87285 20.2713 5.85985 20.267H5.86852C3.18619 18.5683 2.90452 16.1027 4.65302 13.5763ZM27.0325 35.0697L26.9632 31.616L24.5084 28.886C16.3985 30.7233 8.42735 30.329 3.99435 27.7182C3.97919 27.7008 3.94235 27.6835 3.92719 27.6662C1.41819 26.1213 0.79852 24.128 0.98702 21.9613C0.399853 25.1312 0.352186 26.2752 0.436686 28.9878C0.540686 30.6865 1.52219 32.253 3.49602 33.488L3.51119 33.5053C8.23669 36.4433 18.082 37.0803 27.0325 35.0697ZM37.27 39.0238C25.8235 43.615 11.4975 43.8858 5.27485 39.637C5.94686 41.2793 6.86124 42.8115 7.98752 44.1827C13.6989 48.0827 26.8484 47.8335 37.3502 43.6193C43.497 41.1558 47.3754 37.8777 48.3937 34.8053L48.6797 33.8802C49.3579 31.5358 49.4857 29.5837 49.594 27.846C49.4705 31.6182 45.0267 35.9082 37.27 39.0238ZM12.0024 47.866C12.362 48.2083 13.493 49.5972 19.2239 51.1312C20.773 51.4735 24.673 52.572 31.8772 50.9752L31.9205 50.3187L31.3507 49.426C24.6665 51.0077 17.2414 50.479 12.0024 47.866ZM28.5427 20.5465L34.6289 25.1593C34.6289 25.1593 35.931 26.0975 34.7025 26.7562C33.4784 27.4083 30.3345 29.0052 30.3345 29.0052L27.2297 27.846L25.6719 28.5393L28.4192 30.9248L28.4409 34.6363L30.055 33.9192L31.1254 30.784C31.1254 30.784 34.4122 29.5187 35.7165 29.042C37.0274 28.5762 36.8519 30.1708 36.8519 30.1708L36.2062 37.778L38.3512 36.8247L41.8829 26.5612C41.8829 26.5612 43.7549 25.6512 45.0722 24.8517C46.3874 24.0522 46.838 22.7262 46.838 22.7262C46.838 22.7262 45.5554 22.1737 44.0777 22.6178C42.6 23.0577 40.6739 23.842 40.6739 23.842L30.6812 19.5975L28.5427 20.5465ZM15.6662 5.95183L19.798 9.243L20.9269 9.074L18.6779 6.12083C18.6779 6.12083 18.1882 5.50983 18.8469 5.36467C19.5099 5.21733 21.1869 4.875 21.1869 4.875L22.4479 5.8825L23.2972 5.75683L22.3352 4.22717L22.8422 2.53067L22.021 2.64983L21.0482 3.94117C21.0482 3.94117 19.3409 4.1015 18.6692 4.15783C17.9932 4.20983 18.2835 3.484 18.2835 3.484L19.5792 0L18.4439 0.166833L15.4539 4.51967C15.4539 4.51967 14.4572 4.70167 13.7357 4.9075C13.012 5.11117 12.6307 5.67017 12.6307 5.67017C12.6307 5.67017 13.1615 6.09917 13.909 6.084C14.663 6.06883 15.6662 5.95183 15.6662 5.95183ZM36.087 48.2408L33.4134 46.8433L32.798 47.0578L34.3819 48.4748C34.3819 48.4748 34.7199 48.763 34.3645 48.9168C34.0092 49.0685 33.1035 49.4412 33.1035 49.4412L32.356 49.1075L31.9119 49.2678L32.5337 49.9308L32.473 50.8993L32.9367 50.739L33.2834 49.9525C33.2834 49.9525 34.2237 49.673 34.5985 49.5733C34.9712 49.4715 34.8867 49.9092 34.8867 49.9092L34.5335 52L35.151 51.7855L36.3622 49.0208C36.3622 49.0208 36.8974 48.8107 37.2809 48.6178C37.6644 48.425 37.816 48.0697 37.816 48.0697C37.816 48.0697 37.4759 47.8833 37.0555 47.9765C36.633 48.0653 36.087 48.2408 36.087 48.2408Z" fill="white"/>
</svg>
