<svg width="28" height="29" viewBox="0 0 28 29" fill="none" xmlns="http://www.w3.org/2000/svg">
<circle cx="14" cy="14" r="14" fill="#CB7342"/>
<path d="M12.636 18.192C12.672 17.616 12.78 17.124 12.96 16.716C13.152 16.296 13.428 15.816 13.788 15.276C14.172 14.724 14.454 14.232 14.634 13.8C14.826 13.368 14.922 12.846 14.922 12.234C14.922 11.274 14.754 10.59 14.418 10.182C14.094 9.774 13.638 9.57 13.05 9.57C12.306 9.57 11.676 9.846 11.16 10.398C10.644 10.938 10.278 11.79 10.062 12.954H9.522C9.522 12.222 9.546 11.652 9.594 11.244C9.642 10.836 9.774 10.494 9.99 10.218C10.338 9.822 10.842 9.48 11.502 9.192C12.174 8.904 12.87 8.76 13.59 8.76C14.718 8.76 15.642 9.072 16.362 9.696C17.082 10.308 17.442 11.154 17.442 12.234C17.442 12.726 17.352 13.17 17.172 13.566C17.004 13.95 16.8 14.28 16.56 14.556C16.32 14.82 15.99 15.144 15.57 15.528C15.03 16.02 14.622 16.452 14.346 16.824C14.07 17.196 13.908 17.652 13.86 18.192H12.636ZM13.248 21.252C12.9 21.252 12.63 21.156 12.438 20.964C12.246 20.76 12.15 20.49 12.15 20.154C12.15 19.818 12.246 19.554 12.438 19.362C12.63 19.158 12.9 19.056 13.248 19.056C13.596 19.056 13.866 19.158 14.058 19.362C14.25 19.554 14.346 19.818 14.346 20.154C14.346 20.49 14.25 20.76 14.058 20.964C13.866 21.156 13.596 21.252 13.248 21.252Z" fill="black"/>
</svg>
